<svg xmlns="http://www.w3.org/2000/svg" xmlns:xlink="http://www.w3.org/1999/xlink" width="306" zoomAndPan="magnify" viewBox="0 0 229.5 70.499998" height="94" preserveAspectRatio="xMidYMid meet" version="1.0"><defs><g/><clipPath id="86d3011ec1"><path d="M 35.402344 64 L 36.828125 64 L 36.828125 69.972656 L 35.402344 69.972656 Z M 35.402344 64 " clip-rule="nonzero"/></clipPath><clipPath id="817fadc364"><path d="M 32.546875 64 L 33.796875 64 L 33.796875 69.972656 L 32.546875 69.972656 Z M 32.546875 64 " clip-rule="nonzero"/></clipPath><clipPath id="eed5ce63fc"><path d="M 31 64 L 32.191406 64 L 32.191406 69.972656 L 31 69.972656 Z M 31 64 " clip-rule="nonzero"/></clipPath><clipPath id="4bc80df89d"><path d="M 37.003906 64 L 38.253906 64 L 38.253906 69.972656 L 37.003906 69.972656 Z M 37.003906 64 " clip-rule="nonzero"/></clipPath><clipPath id="315d7e658f"><path d="M 29.515625 64 L 30.765625 64 L 30.765625 69.972656 L 29.515625 69.972656 Z M 29.515625 64 " clip-rule="nonzero"/></clipPath><clipPath id="bf7ec3db59"><path d="M 34 64 L 35.222656 64 L 35.222656 69.972656 L 34 69.972656 Z M 34 64 " clip-rule="nonzero"/></clipPath><clipPath id="421c18180d"><path d="M 38.433594 64 L 39.679688 64 L 39.679688 69.972656 L 38.433594 69.972656 Z M 38.433594 64 " clip-rule="nonzero"/></clipPath><clipPath id="770c71b077"><path d="M 23.828125 0 L 45.425781 0 L 45.425781 32 L 23.828125 32 Z M 23.828125 0 " clip-rule="nonzero"/></clipPath></defs><path fill="#ffffff" d="M 36.664062 31.40625 L 36.664062 24.617188 L 36.746094 23.230469 C 36.351562 23.003906 36.078125 22.640625 36.015625 22.21875 L 35.546875 24.636719 L 35.546875 31.40625 L 36.664062 31.40625 " fill-opacity="1" fill-rule="nonzero"/><path fill="#ffffff" d="M 36.664062 55.730469 L 36.664062 31.96875 L 35.546875 31.96875 L 35.546875 55.730469 L 36.664062 55.730469 " fill-opacity="1" fill-rule="nonzero"/><path fill="#ffffff" d="M 36.664062 59.730469 L 36.664062 56.355469 L 35.546875 56.355469 L 35.546875 59.730469 L 36.664062 59.730469 " fill-opacity="1" fill-rule="nonzero"/><path fill="#ffffff" d="M 36.664062 63.390625 L 36.664062 60.246094 L 35.546875 60.246094 L 35.546875 63.390625 L 36.664062 63.390625 " fill-opacity="1" fill-rule="nonzero"/><g clip-path="url(#86d3011ec1)"><path fill="#ffffff" d="M 35.546875 64 L 35.546875 69.972656 L 36.664062 69.972656 L 36.664062 64 L 35.546875 64 " fill-opacity="1" fill-rule="nonzero"/></g><path fill="#ffffff" d="M 32.9375 13.445312 L 32.007812 13.445312 L 32.105469 15.433594 L 32.914062 15.433594 L 32.75 13.460938 L 32.9375 13.445312 " fill-opacity="1" fill-rule="nonzero"/><path fill="#ffffff" d="M 33.25 20.816406 L 33.230469 22.058594 C 33.222656 22.542969 32.929688 22.96875 32.488281 23.226562 L 32.5625 24.734375 L 32.5625 31.40625 L 33.683594 31.40625 L 33.683594 24.710938 L 33.195312 18.828125 L 32.273438 18.828125 L 32.371094 20.816406 L 33.25 20.816406 " fill-opacity="1" fill-rule="nonzero"/><path fill="#ffffff" d="M 33.683594 55.730469 L 33.683594 31.96875 L 32.5625 31.96875 L 32.5625 55.730469 L 33.683594 55.730469 " fill-opacity="1" fill-rule="nonzero"/><g clip-path="url(#817fadc364)"><path fill="#ffffff" d="M 32.5625 64 L 32.5625 69.972656 L 33.683594 69.972656 L 33.683594 64 L 32.5625 64 " fill-opacity="1" fill-rule="nonzero"/></g><path fill="#ffffff" d="M 33.683594 63.390625 L 33.683594 60.246094 L 32.5625 60.246094 L 32.5625 63.390625 L 33.683594 63.390625 " fill-opacity="1" fill-rule="nonzero"/><path fill="#ffffff" d="M 33.683594 59.730469 L 33.683594 56.355469 L 32.5625 56.355469 L 32.5625 59.730469 L 33.683594 59.730469 " fill-opacity="1" fill-rule="nonzero"/><path fill="#ffffff" d="M 38.09375 20.816406 L 38.058594 18.828125 L 37.375 18.828125 L 37.261719 20.816406 L 38.09375 20.816406 " fill-opacity="1" fill-rule="nonzero"/><path fill="#ffffff" d="M 32.191406 31.40625 L 32.191406 24.742188 L 32.125 23.382812 C 31.941406 23.441406 31.75 23.476562 31.546875 23.476562 C 31.378906 23.476562 31.222656 23.449219 31.074219 23.410156 L 31.074219 31.40625 L 32.191406 31.40625 " fill-opacity="1" fill-rule="nonzero"/><path fill="#ffffff" d="M 32.191406 55.730469 L 32.191406 31.96875 L 31.074219 31.96875 L 31.074219 55.730469 L 32.191406 55.730469 " fill-opacity="1" fill-rule="nonzero"/><path fill="#ffffff" d="M 32.191406 59.730469 L 32.191406 56.355469 L 31.074219 56.355469 L 31.074219 59.730469 L 32.191406 59.730469 " fill-opacity="1" fill-rule="nonzero"/><path fill="#ffffff" d="M 32.191406 63.390625 L 32.191406 60.246094 L 31.074219 60.246094 L 31.074219 63.390625 L 32.191406 63.390625 " fill-opacity="1" fill-rule="nonzero"/><g clip-path="url(#eed5ce63fc)"><path fill="#ffffff" d="M 31.074219 64 L 31.074219 69.972656 L 32.191406 69.972656 L 32.191406 64 L 31.074219 64 " fill-opacity="1" fill-rule="nonzero"/></g><path fill="#ffffff" d="M 38.15625 31.40625 L 38.15625 24.558594 L 38.136719 23.421875 C 37.996094 23.457031 37.84375 23.476562 37.6875 23.476562 C 37.484375 23.476562 37.292969 23.441406 37.113281 23.382812 L 37.039062 24.628906 L 37.039062 31.40625 L 38.15625 31.40625 " fill-opacity="1" fill-rule="nonzero"/><path fill="#ffffff" d="M 38.15625 55.730469 L 38.15625 31.96875 L 37.039062 31.96875 L 37.039062 55.730469 L 38.15625 55.730469 " fill-opacity="1" fill-rule="nonzero"/><path fill="#ffffff" d="M 38.15625 63.390625 L 38.15625 60.246094 L 37.039062 60.246094 L 37.039062 63.390625 L 38.15625 63.390625 " fill-opacity="1" fill-rule="nonzero"/><g clip-path="url(#4bc80df89d)"><path fill="#ffffff" d="M 37.039062 64 L 37.039062 69.972656 L 38.15625 69.972656 L 38.15625 64 L 37.039062 64 " fill-opacity="1" fill-rule="nonzero"/></g><path fill="#ffffff" d="M 38.15625 59.730469 L 38.15625 56.355469 L 37.039062 56.355469 L 37.039062 59.730469 L 38.15625 59.730469 " fill-opacity="1" fill-rule="nonzero"/><path fill="#ffffff" d="M 30.699219 55.730469 L 30.699219 31.96875 L 29.953125 31.96875 L 29.789062 55.730469 L 30.699219 55.730469 " fill-opacity="1" fill-rule="nonzero"/><path fill="#ffffff" d="M 30.699219 59.730469 L 30.699219 56.355469 L 29.785156 56.355469 L 29.761719 59.730469 L 30.699219 59.730469 " fill-opacity="1" fill-rule="nonzero"/><g clip-path="url(#315d7e658f)"><path fill="#ffffff" d="M 29.730469 64 L 29.691406 69.972656 L 30.699219 69.972656 L 30.699219 64 L 29.730469 64 " fill-opacity="1" fill-rule="nonzero"/></g><path fill="#ffffff" d="M 30.699219 63.390625 L 30.699219 60.246094 L 29.757812 60.246094 L 29.734375 63.390625 L 30.699219 63.390625 " fill-opacity="1" fill-rule="nonzero"/><path fill="#ffffff" d="M 35.175781 55.730469 L 35.175781 31.96875 L 34.054688 31.96875 L 34.054688 55.730469 L 35.175781 55.730469 " fill-opacity="1" fill-rule="nonzero"/><path fill="#ffffff" d="M 35.175781 59.730469 L 35.175781 56.355469 L 34.054688 56.355469 L 34.054688 59.730469 L 35.175781 59.730469 " fill-opacity="1" fill-rule="nonzero"/><path fill="#ffffff" d="M 35.175781 63.390625 L 35.175781 60.246094 L 34.054688 60.246094 L 34.054688 63.390625 L 35.175781 63.390625 " fill-opacity="1" fill-rule="nonzero"/><g clip-path="url(#bf7ec3db59)"><path fill="#ffffff" d="M 34.054688 64 L 34.054688 69.972656 L 35.175781 69.972656 L 35.175781 64 L 34.054688 64 " fill-opacity="1" fill-rule="nonzero"/></g><path fill="#ffffff" d="M 39.46875 59.730469 L 39.445312 56.355469 L 38.53125 56.355469 L 38.53125 59.730469 L 39.46875 59.730469 " fill-opacity="1" fill-rule="nonzero"/><path fill="#ffffff" d="M 39.496094 63.390625 L 39.472656 60.246094 L 38.53125 60.246094 L 38.53125 63.390625 L 39.496094 63.390625 " fill-opacity="1" fill-rule="nonzero"/><g clip-path="url(#421c18180d)"><path fill="#ffffff" d="M 38.53125 64 L 38.53125 69.972656 L 39.539062 69.972656 L 39.5 64 L 38.53125 64 " fill-opacity="1" fill-rule="nonzero"/></g><path fill="#ffffff" d="M 39.441406 55.730469 L 39.273438 31.96875 L 38.53125 31.96875 L 38.53125 55.730469 L 39.441406 55.730469 " fill-opacity="1" fill-rule="nonzero"/><g clip-path="url(#770c71b077)"><path fill="#ffffff" d="M 45.089844 19.207031 L 43.023438 18.328125 C 42.953125 18.285156 42.875 18.261719 42.792969 18.253906 L 42.757812 17.875 L 41.703125 17.972656 L 41.488281 15.824219 L 42.511719 15.726562 L 42.484375 15.410156 L 43.101562 15.929688 C 43.222656 16.007812 43.363281 16.03125 43.503906 16 C 43.640625 15.96875 43.757812 15.882812 43.835938 15.765625 L 44.589844 14.574219 C 44.75 14.328125 44.675781 14 44.390625 13.824219 L 42.324219 12.941406 C 42.300781 12.925781 42.273438 12.914062 42.246094 12.90625 L 42.199219 12.386719 L 41.148438 12.484375 L 40.941406 10.417969 L 41.996094 10.320312 L 41.96875 10.035156 L 42.71875 10.667969 C 42.839844 10.746094 42.984375 10.769531 43.121094 10.738281 C 43.261719 10.707031 43.378906 10.625 43.453125 10.503906 L 44.210938 9.316406 C 44.367188 9.066406 44.292969 8.738281 44.007812 8.5625 L 41.945312 7.679688 C 41.882812 7.640625 41.8125 7.617188 41.742188 7.609375 L 41.679688 6.980469 L 40.605469 7.082031 L 40.316406 4.222656 L 40.265625 3.695312 C 40.265625 3.695312 37.917969 2.574219 37.070312 1.300781 C 36.21875 0.0273438 34.613281 0.679688 34.613281 1.59375 C 34.613281 0.679688 33.011719 0.0273438 32.160156 1.300781 C 31.3125 2.574219 28.964844 3.695312 28.964844 3.695312 L 28.625 7.078125 L 27.601562 6.980469 L 27.542969 7.609375 C 27.472656 7.617188 27.402344 7.640625 27.339844 7.679688 L 25.273438 8.5625 C 24.988281 8.738281 24.917969 9.066406 25.070312 9.316406 L 25.828125 10.503906 C 25.90625 10.625 26.023438 10.707031 26.160156 10.738281 C 26.296875 10.769531 26.441406 10.746094 26.5625 10.667969 L 27.316406 10.035156 L 27.289062 10.320312 L 28.289062 10.414062 L 28.078125 12.480469 L 27.085938 12.386719 L 27.035156 12.90625 C 27.007812 12.914062 26.984375 12.925781 26.957031 12.941406 L 24.890625 13.824219 C 24.609375 14 24.535156 14.328125 24.691406 14.574219 L 25.449219 15.765625 C 25.523438 15.882812 25.640625 15.96875 25.777344 16 C 25.917969 16.03125 26.0625 16.007812 26.183594 15.929688 L 26.800781 15.410156 L 26.769531 15.726562 L 27.742188 15.816406 L 27.527344 17.96875 L 26.527344 17.875 L 26.488281 18.253906 C 26.410156 18.261719 26.328125 18.285156 26.257812 18.328125 L 24.195312 19.207031 C 23.910156 19.382812 23.835938 19.714844 23.992188 19.960938 L 24.75 21.152344 C 24.824219 21.269531 24.941406 21.351562 25.082031 21.382812 C 25.21875 21.414062 25.363281 21.390625 25.484375 21.316406 L 26.261719 20.65625 L 26.210938 21.214844 L 27.191406 21.308594 L 27.136719 21.847656 L 29.980469 25.871094 L 29.996094 25.871094 L 29.957031 31.40625 L 30.699219 31.40625 L 30.699219 23.265625 C 30.238281 23.019531 29.941406 22.574219 29.972656 22.058594 L 30.050781 20.816406 L 30.699219 20.816406 L 30.699219 18.851562 L 31.074219 18.851562 L 31.074219 20.816406 L 31.996094 20.816406 L 31.898438 18.828125 L 30.175781 18.828125 L 30.386719 15.433594 L 31.730469 15.433594 L 31.632812 13.445312 L 30.511719 13.445312 L 30.726562 10.046875 L 31.464844 10.046875 L 31.367188 8.066406 L 31.554688 8.058594 L 30.851562 8.058594 L 30.886719 7.5 C 30.933594 6.71875 31.535156 6.082031 32.226562 6.082031 C 32.917969 6.082031 33.472656 6.71875 33.457031 7.5 L 33.449219 8.058594 L 31.742188 8.058594 L 31.839844 10.046875 L 33.417969 10.046875 L 33.363281 13.445312 L 33.125 13.445312 L 33.289062 15.433594 L 33.332031 15.433594 L 33.328125 15.890625 L 34.054688 24.695312 L 34.054688 31.40625 L 35.175781 31.40625 L 35.175781 24.601562 L 35.179688 24.582031 L 36.289062 18.828125 L 35.914062 18.828125 L 35.832031 15.433594 L 37.203125 15.433594 L 37.316406 13.445312 L 35.785156 13.445312 L 35.703125 10.046875 L 37.910156 10.046875 L 37.878906 8.0625 L 38.0625 8.058594 L 35.65625 8.058594 L 35.640625 7.5 C 35.621094 6.71875 36.167969 6.082031 36.859375 6.082031 C 37.550781 6.082031 38.15625 6.71875 38.214844 7.5 L 38.253906 8.058594 L 38.25 8.058594 L 38.285156 10.046875 L 38.394531 10.046875 L 38.636719 13.445312 L 38.339844 13.445312 L 38.375 15.433594 L 38.777344 15.433594 L 39.015625 18.828125 L 38.433594 18.828125 L 38.464844 20.816406 L 39.15625 20.816406 L 39.246094 22.058594 C 39.285156 22.582031 38.984375 23.035156 38.507812 23.28125 L 38.53125 24.554688 L 38.53125 31.40625 L 39.273438 31.40625 L 39.234375 25.871094 L 39.214844 25.871094 L 42.09375 21.847656 L 42.039062 21.3125 L 43.074219 21.214844 L 43.019531 20.65625 L 43.800781 21.316406 C 43.917969 21.390625 44.0625 21.414062 44.203125 21.382812 C 44.339844 21.351562 44.457031 21.269531 44.53125 21.152344 L 45.289062 19.960938 C 45.445312 19.714844 45.371094 19.382812 45.089844 19.207031 " fill-opacity="1" fill-rule="nonzero"/></g><path fill="#ffffff" d="M 37.503906 13.445312 L 37.691406 13.453125 L 37.574219 15.433594 L 38.003906 15.433594 L 37.96875 13.445312 L 37.503906 13.445312 " fill-opacity="1" fill-rule="nonzero"/><path fill="#ffffff" d="M 36.664062 18.863281 L 36.285156 20.816406 L 36.886719 20.816406 L 37.003906 18.828125 L 36.480469 18.828125 L 36.664062 18.863281 " fill-opacity="1" fill-rule="nonzero"/><g fill="#ffffff" fill-opacity="1"><g transform="translate(52.657146, 34.367661)"><g><path d="M 13.890625 -11.390625 L 10.65625 0 L 8.09375 0 L 4.8125 -11.484375 L 4.9375 0 L 1.375 0 L 1.375 -15.15625 L 6.34375 -15.15625 L 9.359375 -5.1875 L 9.40625 -5.1875 L 12.375 -15.15625 L 17.375 -15.15625 L 17.375 0 L 13.8125 0 L 13.921875 -11.34375 Z M 13.890625 -11.390625 "/></g></g></g><g fill="#ffffff" fill-opacity="1"><g transform="translate(70.991569, 34.367661)"><g><path d="M 6.640625 -2.5 C 7.085938 -2.5 7.472656 -2.582031 7.796875 -2.75 C 8.117188 -2.925781 8.421875 -3.195312 8.703125 -3.5625 L 12.1875 -3.5625 C 11.644531 -2.320312 10.882812 -1.351562 9.90625 -0.65625 C 8.925781 0.03125 7.835938 0.375 6.640625 0.375 C 5.554688 0.375 4.550781 0.109375 3.625 -0.421875 C 2.707031 -0.960938 1.972656 -1.691406 1.421875 -2.609375 C 0.878906 -3.535156 0.609375 -4.550781 0.609375 -5.65625 C 0.609375 -6.726562 0.875 -7.734375 1.40625 -8.671875 C 1.945312 -9.609375 2.671875 -10.359375 3.578125 -10.921875 C 4.484375 -11.484375 5.484375 -11.765625 6.578125 -11.765625 C 7.691406 -11.765625 8.707031 -11.488281 9.625 -10.9375 C 10.539062 -10.394531 11.257812 -9.648438 11.78125 -8.703125 C 12.3125 -7.765625 12.578125 -6.710938 12.578125 -5.546875 C 12.578125 -5.222656 12.550781 -4.925781 12.5 -4.65625 L 3.96875 -4.65625 C 4.070312 -4.007812 4.367188 -3.488281 4.859375 -3.09375 C 5.347656 -2.695312 5.941406 -2.5 6.640625 -2.5 Z M 6.578125 -8.890625 C 5.953125 -8.890625 5.398438 -8.710938 4.921875 -8.359375 C 4.453125 -8.015625 4.148438 -7.539062 4.015625 -6.9375 L 9.171875 -6.9375 C 9.035156 -7.53125 8.734375 -8.003906 8.265625 -8.359375 C 7.796875 -8.710938 7.234375 -8.890625 6.578125 -8.890625 Z M 6.578125 -8.890625 "/></g></g></g><g fill="#ffffff" fill-opacity="1"><g transform="translate(83.815415, 34.367661)"><g><path d="M 4.625 -15.15625 L 4.625 0 L 1.234375 0 L 1.234375 -15.15625 Z M 4.625 -15.15625 "/></g></g></g><g fill="#ffffff" fill-opacity="1"><g transform="translate(89.264513, 34.367661)"><g><path d="M 4.625 -15.15625 L 4.625 -10.46875 C 5.4375 -11.332031 6.515625 -11.765625 7.859375 -11.765625 C 8.859375 -11.765625 9.789062 -11.519531 10.65625 -11.03125 C 11.53125 -10.539062 12.222656 -9.84375 12.734375 -8.9375 C 13.253906 -8.03125 13.515625 -6.96875 13.515625 -5.75 C 13.515625 -4.59375 13.28125 -3.546875 12.8125 -2.609375 C 12.34375 -1.671875 11.671875 -0.9375 10.796875 -0.40625 C 9.929688 0.125 8.925781 0.390625 7.78125 0.390625 C 7.082031 0.390625 6.429688 0.242188 5.828125 -0.046875 C 5.222656 -0.335938 4.789062 -0.722656 4.53125 -1.203125 L 4.484375 -1.203125 L 4.484375 0 L 1.234375 0 L 1.234375 -15.15625 Z M 10.125 -5.6875 C 10.125 -6.195312 10.003906 -6.671875 9.765625 -7.109375 C 9.523438 -7.554688 9.1875 -7.910156 8.75 -8.171875 C 8.320312 -8.441406 7.84375 -8.578125 7.3125 -8.578125 C 6.789062 -8.578125 6.316406 -8.445312 5.890625 -8.1875 C 5.460938 -7.925781 5.125 -7.578125 4.875 -7.140625 C 4.625 -6.710938 4.5 -6.238281 4.5 -5.71875 C 4.5 -4.882812 4.757812 -4.1875 5.28125 -3.625 C 5.8125 -3.0625 6.472656 -2.78125 7.265625 -2.78125 C 7.785156 -2.78125 8.265625 -2.910156 8.703125 -3.171875 C 9.140625 -3.429688 9.484375 -3.78125 9.734375 -4.21875 C 9.992188 -4.664062 10.125 -5.15625 10.125 -5.6875 Z M 10.125 -5.6875 "/></g></g></g><g fill="#ffffff" fill-opacity="1"><g transform="translate(103.051174, 34.367661)"><g><path d="M 5.015625 -9.03125 C 4.734375 -9.03125 4.5 -8.957031 4.3125 -8.8125 C 4.125 -8.675781 4.03125 -8.5 4.03125 -8.28125 C 4.03125 -7.976562 4.179688 -7.726562 4.484375 -7.53125 C 4.796875 -7.34375 5.359375 -7.144531 6.171875 -6.9375 C 7.472656 -6.601562 8.394531 -6.15625 8.9375 -5.59375 C 9.476562 -5.039062 9.75 -4.335938 9.75 -3.484375 C 9.75 -2.703125 9.539062 -2.019531 9.125 -1.4375 C 8.71875 -0.863281 8.160156 -0.414062 7.453125 -0.09375 C 6.753906 0.226562 5.976562 0.390625 5.125 0.390625 C 3.84375 0.390625 2.78125 0.0507812 1.9375 -0.625 C 1.09375 -1.3125 0.609375 -2.226562 0.484375 -3.375 L 3.875 -3.375 C 3.925781 -3.039062 4.0625 -2.78125 4.28125 -2.59375 C 4.507812 -2.414062 4.800781 -2.328125 5.15625 -2.328125 C 5.476562 -2.328125 5.753906 -2.410156 5.984375 -2.578125 C 6.222656 -2.742188 6.34375 -2.957031 6.34375 -3.21875 C 6.34375 -3.539062 6.203125 -3.804688 5.921875 -4.015625 C 5.648438 -4.222656 5.097656 -4.457031 4.265625 -4.71875 C 2.910156 -5.125 1.96875 -5.597656 1.4375 -6.140625 C 0.90625 -6.691406 0.640625 -7.328125 0.640625 -8.046875 C 0.640625 -8.773438 0.84375 -9.421875 1.25 -9.984375 C 1.65625 -10.554688 2.195312 -10.992188 2.875 -11.296875 C 3.550781 -11.609375 4.273438 -11.765625 5.046875 -11.765625 C 6.285156 -11.765625 7.300781 -11.441406 8.09375 -10.796875 C 8.882812 -10.148438 9.320312 -9.273438 9.40625 -8.171875 L 6.0625 -8.171875 C 6.050781 -8.742188 5.703125 -9.03125 5.015625 -9.03125 Z M 5.015625 -9.03125 "/></g></g></g><g fill="#ffffff" fill-opacity="1"><g transform="translate(112.863663, 34.367661)"><g><path d="M 2 -10.203125 C 2.320312 -10.203125 2.578125 -10.265625 2.765625 -10.390625 C 2.953125 -10.523438 3.046875 -10.707031 3.046875 -10.9375 L 3.046875 -11.671875 L 1.4375 -11.671875 L 1.4375 -15.15625 L 5 -15.15625 L 5 -10.75 C 5 -10.09375 4.800781 -9.53125 4.40625 -9.0625 C 4.007812 -8.601562 3.523438 -8.375 2.953125 -8.375 L 1.4375 -8.375 L 1.4375 -10.203125 Z M 2 -10.203125 "/></g></g></g><g fill="#ffffff" fill-opacity="1"><g transform="translate(118.886356, 34.367661)"><g/></g></g><g fill="#ffffff" fill-opacity="1"><g transform="translate(124.806621, 34.367661)"><g><path d="M 8.765625 0.3125 C 7.296875 0.3125 5.945312 -0.0351562 4.71875 -0.734375 C 3.488281 -1.441406 2.515625 -2.40625 1.796875 -3.625 C 1.078125 -4.84375 0.71875 -6.179688 0.71875 -7.640625 C 0.71875 -9.128906 1.082031 -10.46875 1.8125 -11.65625 C 2.539062 -12.84375 3.523438 -13.769531 4.765625 -14.4375 C 6.015625 -15.101562 7.367188 -15.4375 8.828125 -15.4375 C 9.953125 -15.4375 11.039062 -15.203125 12.09375 -14.734375 C 13.15625 -14.265625 14.066406 -13.617188 14.828125 -12.796875 C 15.597656 -11.984375 16.125 -11.078125 16.40625 -10.078125 L 12.0625 -10.078125 C 11.707031 -10.703125 11.242188 -11.1875 10.671875 -11.53125 C 10.097656 -11.875 9.445312 -12.046875 8.71875 -12.046875 C 7.925781 -12.046875 7.21875 -11.847656 6.59375 -11.453125 C 5.96875 -11.066406 5.476562 -10.535156 5.125 -9.859375 C 4.769531 -9.179688 4.59375 -8.441406 4.59375 -7.640625 C 4.59375 -6.796875 4.757812 -6.023438 5.09375 -5.328125 C 5.4375 -4.640625 5.921875 -4.09375 6.546875 -3.6875 C 7.179688 -3.289062 7.914062 -3.09375 8.75 -3.09375 C 9.644531 -3.09375 10.414062 -3.300781 11.0625 -3.71875 C 11.707031 -4.144531 12.144531 -4.75 12.375 -5.53125 L 7.84375 -5.53125 L 7.84375 -8.625 L 16.859375 -8.625 L 16.859375 -7.765625 C 16.859375 -6.367188 16.53125 -5.050781 15.875 -3.8125 C 15.21875 -2.582031 14.273438 -1.585938 13.046875 -0.828125 C 11.828125 -0.0664062 10.398438 0.3125 8.765625 0.3125 Z M 8.765625 0.3125 "/></g></g></g><g fill="#ffffff" fill-opacity="1"><g transform="translate(141.891431, 34.367661)"><g><path d="M 8.5 -1.203125 C 8.25 -0.671875 7.882812 -0.273438 7.40625 -0.015625 C 6.9375 0.242188 6.328125 0.375 5.578125 0.375 C 4.285156 0.375 3.226562 -0.015625 2.40625 -0.796875 C 1.59375 -1.585938 1.1875 -2.753906 1.1875 -4.296875 L 1.1875 -11.375 L 4.59375 -11.375 L 4.59375 -5 C 4.59375 -4.25 4.734375 -3.695312 5.015625 -3.34375 C 5.304688 -2.988281 5.769531 -2.8125 6.40625 -2.8125 C 7.039062 -2.8125 7.523438 -3.007812 7.859375 -3.40625 C 8.191406 -3.800781 8.359375 -4.351562 8.359375 -5.0625 L 8.359375 -11.375 L 11.765625 -11.375 L 11.765625 0 L 8.546875 0 L 8.546875 -1.203125 Z M 8.5 -1.203125 "/></g></g></g><g fill="#ffffff" fill-opacity="1"><g transform="translate(154.469453, 34.367661)"><g><path d="M 4.625 -15.15625 L 4.625 -12.578125 L 1.234375 -12.578125 L 1.234375 -15.15625 Z M 4.625 -11.375 L 4.625 0 L 1.234375 0 L 1.234375 -11.375 Z M 4.625 -11.375 "/></g></g></g><g fill="#ffffff" fill-opacity="1"><g transform="translate(159.918554, 34.367661)"><g><path d="M 0.21875 -8.78125 L 0.21875 -11.375 L 1.90625 -11.375 L 1.90625 -15.15625 L 5.3125 -15.15625 L 5.3125 -11.375 L 6.9375 -11.375 L 6.9375 -8.78125 L 5.3125 -8.78125 L 5.3125 0 L 1.90625 0 L 1.90625 -8.78125 Z M 0.21875 -8.78125 "/></g></g></g><g fill="#ffffff" fill-opacity="1"><g transform="translate(166.699203, 34.367661)"><g><path d="M 9.734375 -1.234375 C 9.484375 -0.734375 9.050781 -0.335938 8.4375 -0.046875 C 7.820312 0.242188 7.140625 0.390625 6.390625 0.390625 C 5.296875 0.390625 4.316406 0.125 3.453125 -0.40625 C 2.585938 -0.9375 1.910156 -1.664062 1.421875 -2.59375 C 0.941406 -3.53125 0.703125 -4.5625 0.703125 -5.6875 C 0.703125 -6.800781 0.945312 -7.820312 1.4375 -8.75 C 1.9375 -9.675781 2.617188 -10.410156 3.484375 -10.953125 C 4.359375 -11.492188 5.328125 -11.765625 6.390625 -11.765625 C 7.097656 -11.765625 7.753906 -11.625 8.359375 -11.34375 C 8.960938 -11.0625 9.421875 -10.664062 9.734375 -10.15625 L 9.765625 -10.15625 L 9.765625 -11.375 L 13.171875 -11.375 L 13.171875 0 L 9.765625 0 L 9.765625 -1.234375 Z M 9.765625 -5.6875 C 9.765625 -6.207031 9.632812 -6.6875 9.375 -7.125 C 9.125 -7.570312 8.773438 -7.925781 8.328125 -8.1875 C 7.878906 -8.445312 7.394531 -8.578125 6.875 -8.578125 C 6.375 -8.578125 5.90625 -8.445312 5.46875 -8.1875 C 5.039062 -7.925781 4.703125 -7.570312 4.453125 -7.125 C 4.210938 -6.675781 4.09375 -6.1875 4.09375 -5.65625 C 4.09375 -5.132812 4.21875 -4.65625 4.46875 -4.21875 C 4.726562 -3.78125 5.070312 -3.429688 5.5 -3.171875 C 5.925781 -2.910156 6.398438 -2.78125 6.921875 -2.78125 C 7.441406 -2.78125 7.921875 -2.910156 8.359375 -3.171875 C 8.796875 -3.429688 9.140625 -3.78125 9.390625 -4.21875 C 9.640625 -4.664062 9.765625 -5.15625 9.765625 -5.6875 Z M 9.765625 -5.6875 "/></g></g></g><g fill="#ffffff" fill-opacity="1"><g transform="translate(180.711207, 34.367661)"><g><path d="M 4.40625 -11.375 L 4.40625 -10.15625 L 4.4375 -10.15625 C 4.726562 -10.75 5.101562 -11.164062 5.5625 -11.40625 C 6.03125 -11.644531 6.609375 -11.765625 7.296875 -11.765625 L 7.296875 -8.34375 C 6.328125 -8.320312 5.632812 -8.140625 5.21875 -7.796875 C 4.8125 -7.460938 4.609375 -6.953125 4.609375 -6.265625 L 4.609375 0 L 1.203125 0 L 1.203125 -11.375 Z M 4.40625 -11.375 "/></g></g></g><g fill="#ffffff" fill-opacity="1"><g transform="translate(187.73768, 34.367661)"><g><path d="M 5.015625 -9.03125 C 4.734375 -9.03125 4.5 -8.957031 4.3125 -8.8125 C 4.125 -8.675781 4.03125 -8.5 4.03125 -8.28125 C 4.03125 -7.976562 4.179688 -7.726562 4.484375 -7.53125 C 4.796875 -7.34375 5.359375 -7.144531 6.171875 -6.9375 C 7.472656 -6.601562 8.394531 -6.15625 8.9375 -5.59375 C 9.476562 -5.039062 9.75 -4.335938 9.75 -3.484375 C 9.75 -2.703125 9.539062 -2.019531 9.125 -1.4375 C 8.71875 -0.863281 8.160156 -0.414062 7.453125 -0.09375 C 6.753906 0.226562 5.976562 0.390625 5.125 0.390625 C 3.84375 0.390625 2.78125 0.0507812 1.9375 -0.625 C 1.09375 -1.3125 0.609375 -2.226562 0.484375 -3.375 L 3.875 -3.375 C 3.925781 -3.039062 4.0625 -2.78125 4.28125 -2.59375 C 4.507812 -2.414062 4.800781 -2.328125 5.15625 -2.328125 C 5.476562 -2.328125 5.753906 -2.410156 5.984375 -2.578125 C 6.222656 -2.742188 6.34375 -2.957031 6.34375 -3.21875 C 6.34375 -3.539062 6.203125 -3.804688 5.921875 -4.015625 C 5.648438 -4.222656 5.097656 -4.457031 4.265625 -4.71875 C 2.910156 -5.125 1.96875 -5.597656 1.4375 -6.140625 C 0.90625 -6.691406 0.640625 -7.328125 0.640625 -8.046875 C 0.640625 -8.773438 0.84375 -9.421875 1.25 -9.984375 C 1.65625 -10.554688 2.195312 -10.992188 2.875 -11.296875 C 3.550781 -11.609375 4.273438 -11.765625 5.046875 -11.765625 C 6.285156 -11.765625 7.300781 -11.441406 8.09375 -10.796875 C 8.882812 -10.148438 9.320312 -9.273438 9.40625 -8.171875 L 6.0625 -8.171875 C 6.050781 -8.742188 5.703125 -9.03125 5.015625 -9.03125 Z M 5.015625 -9.03125 "/></g></g></g><path fill="#5383ff" d="M 87.730469 41.261719 L 162.882812 41.261719 C 164.761719 41.261719 166.28125 42.78125 166.28125 44.660156 L 166.28125 51.460938 C 166.28125 53.339844 164.761719 54.859375 162.882812 54.859375 L 87.730469 54.859375 C 85.851562 54.859375 84.332031 53.339844 84.332031 51.460938 L 84.332031 44.660156 C 84.332031 42.78125 85.851562 41.261719 87.730469 41.261719 Z M 87.730469 41.261719 " fill-opacity="1" fill-rule="nonzero"/><g fill="#ffffff" fill-opacity="1"><g transform="translate(89.193511, 50.664093)"><g><path d="M 0.609375 -5.109375 L 2.984375 -5.109375 C 3.578125 -5.109375 4.019531 -4.957031 4.3125 -4.65625 C 4.550781 -4.425781 4.671875 -4.132812 4.671875 -3.78125 L 4.671875 -3.765625 C 4.671875 -3.617188 4.648438 -3.488281 4.609375 -3.375 C 4.578125 -3.269531 4.53125 -3.171875 4.46875 -3.078125 C 4.40625 -2.992188 4.332031 -2.914062 4.25 -2.84375 C 4.175781 -2.78125 4.09375 -2.722656 4 -2.671875 C 4.289062 -2.554688 4.519531 -2.398438 4.6875 -2.203125 C 4.863281 -2.015625 4.953125 -1.753906 4.953125 -1.421875 L 4.953125 -1.40625 C 4.953125 -1.164062 4.90625 -0.957031 4.8125 -0.78125 C 4.726562 -0.613281 4.601562 -0.46875 4.4375 -0.34375 C 4.269531 -0.226562 4.066406 -0.140625 3.828125 -0.078125 C 3.585938 -0.0234375 3.328125 0 3.046875 0 L 0.609375 0 Z M 3.546875 -3.59375 C 3.546875 -3.769531 3.484375 -3.898438 3.359375 -3.984375 C 3.234375 -4.078125 3.050781 -4.125 2.8125 -4.125 L 1.703125 -4.125 L 1.703125 -3.046875 L 2.75 -3.046875 C 2.988281 -3.046875 3.179688 -3.085938 3.328125 -3.171875 C 3.472656 -3.253906 3.546875 -3.390625 3.546875 -3.578125 Z M 3.84375 -1.546875 C 3.84375 -1.722656 3.773438 -1.859375 3.640625 -1.953125 C 3.503906 -2.054688 3.289062 -2.109375 3 -2.109375 L 1.703125 -2.109375 L 1.703125 -0.984375 L 3.046875 -0.984375 C 3.296875 -0.984375 3.488281 -1.023438 3.625 -1.109375 C 3.769531 -1.203125 3.84375 -1.347656 3.84375 -1.546875 Z M 3.84375 -1.546875 "/></g></g></g><g fill="#ffffff" fill-opacity="1"><g transform="translate(94.609985, 50.664093)"><g><path d="M 2.046875 -2.015625 L 0.09375 -5.109375 L 1.40625 -5.109375 L 2.625 -3.0625 L 3.859375 -5.109375 L 5.140625 -5.109375 L 3.171875 -2.03125 L 3.171875 0 L 2.046875 0 Z M 2.046875 -2.015625 "/></g></g></g><g fill="#ffffff" fill-opacity="1"><g transform="translate(99.982661, 50.664093)"><g/></g></g><g fill="#ffffff" fill-opacity="1"><g transform="translate(102.318622, 50.664093)"><g><path d="M 2.359375 -5.140625 L 3.40625 -5.140625 L 5.59375 0 L 4.421875 0 L 3.953125 -1.140625 L 1.78125 -1.140625 L 1.328125 0 L 0.171875 0 Z M 3.546875 -2.140625 L 2.875 -3.796875 L 2.1875 -2.140625 Z M 3.546875 -2.140625 "/></g></g></g><g fill="#ffffff" fill-opacity="1"><g transform="translate(108.231482, 50.664093)"><g><path d="M 0.609375 -5.109375 L 1.734375 -5.109375 L 1.734375 -1.015625 L 4.28125 -1.015625 L 4.28125 0 L 0.609375 0 Z M 0.609375 -5.109375 "/></g></g></g><g fill="#ffffff" fill-opacity="1"><g transform="translate(112.896076, 50.664093)"><g><path d="M 2.359375 -5.140625 L 3.40625 -5.140625 L 5.59375 0 L 4.421875 0 L 3.953125 -1.140625 L 1.78125 -1.140625 L 1.328125 0 L 0.171875 0 Z M 3.546875 -2.140625 L 2.875 -3.796875 L 2.1875 -2.140625 Z M 3.546875 -2.140625 "/></g></g></g><g fill="#ffffff" fill-opacity="1"><g transform="translate(118.808935, 50.664093)"><g><path d="M 0.609375 -5.109375 L 1.65625 -5.109375 L 4.046875 -1.96875 L 4.046875 -5.109375 L 5.15625 -5.109375 L 5.15625 0 L 4.203125 0 L 1.71875 -3.25 L 1.71875 0 L 0.609375 0 Z M 0.609375 -5.109375 "/></g></g></g><g fill="#ffffff" fill-opacity="1"><g transform="translate(124.721795, 50.664093)"><g/></g></g><g fill="#ffffff" fill-opacity="1"><g transform="translate(127.057755, 50.664093)"><g><path d="M 0.609375 -5.109375 L 2.609375 -5.109375 C 3.003906 -5.109375 3.367188 -5.039062 3.703125 -4.90625 C 4.035156 -4.78125 4.320312 -4.601562 4.5625 -4.375 C 4.800781 -4.144531 4.984375 -3.875 5.109375 -3.5625 C 5.242188 -3.257812 5.3125 -2.925781 5.3125 -2.5625 L 5.3125 -2.546875 C 5.3125 -2.191406 5.242188 -1.859375 5.109375 -1.546875 C 4.984375 -1.234375 4.800781 -0.960938 4.5625 -0.734375 C 4.320312 -0.503906 4.035156 -0.320312 3.703125 -0.1875 C 3.367188 -0.0625 3.003906 0 2.609375 0 L 0.609375 0 Z M 1.734375 -4.09375 L 1.734375 -1.015625 L 2.609375 -1.015625 C 2.835938 -1.015625 3.046875 -1.050781 3.234375 -1.125 C 3.421875 -1.195312 3.582031 -1.300781 3.71875 -1.4375 C 3.851562 -1.570312 3.957031 -1.734375 4.03125 -1.921875 C 4.101562 -2.109375 4.140625 -2.316406 4.140625 -2.546875 C 4.140625 -2.773438 4.101562 -2.984375 4.03125 -3.171875 C 3.957031 -3.359375 3.851562 -3.519531 3.71875 -3.65625 C 3.582031 -3.800781 3.421875 -3.910156 3.234375 -3.984375 C 3.046875 -4.054688 2.835938 -4.09375 2.609375 -4.09375 Z M 1.734375 -4.09375 "/></g></g></g><g fill="#ffffff" fill-opacity="1"><g transform="translate(132.912216, 50.664093)"><g><path d="M 0.609375 -5.109375 L 4.46875 -5.109375 L 4.46875 -4.109375 L 1.734375 -4.109375 L 1.734375 -3.078125 L 4.140625 -3.078125 L 4.140625 -2.078125 L 1.734375 -2.078125 L 1.734375 -1 L 4.5 -1 L 4.5 0 L 0.609375 0 Z M 0.609375 -5.109375 "/></g></g></g><g fill="#ffffff" fill-opacity="1"><g transform="translate(137.949101, 50.664093)"><g><path d="M 0.171875 -5.109375 L 1.421875 -5.109375 L 2.75 -1.515625 L 4.09375 -5.109375 L 5.296875 -5.109375 L 3.234375 0.03125 L 2.234375 0.03125 Z M 0.171875 -5.109375 "/></g></g></g><g fill="#ffffff" fill-opacity="1"><g transform="translate(143.56997, 50.664093)"><g><path d="M 2.359375 -5.140625 L 3.40625 -5.140625 L 5.59375 0 L 4.421875 0 L 3.953125 -1.140625 L 1.78125 -1.140625 L 1.328125 0 L 0.171875 0 Z M 3.546875 -2.140625 L 2.875 -3.796875 L 2.1875 -2.140625 Z M 3.546875 -2.140625 "/></g></g></g><g fill="#ffffff" fill-opacity="1"><g transform="translate(149.482833, 50.664093)"><g><path d="M 0.609375 -5.109375 L 1.734375 -5.109375 L 1.734375 -1.015625 L 4.28125 -1.015625 L 4.28125 0 L 0.609375 0 Z M 0.609375 -5.109375 "/></g></g></g><g fill="#ffffff" fill-opacity="1"><g transform="translate(154.147427, 50.664093)"><g><path d="M 0.65625 -5.109375 L 1.78125 -5.109375 L 1.78125 0 L 0.65625 0 Z M 0.65625 -5.109375 "/></g></g></g><g fill="#ffffff" fill-opacity="1"><g transform="translate(156.746181, 50.664093)"><g><path d="M 2.4375 0.078125 C 2.039062 0.078125 1.65625 0.0078125 1.28125 -0.125 C 0.90625 -0.257812 0.566406 -0.46875 0.265625 -0.75 L 0.921875 -1.546875 C 1.160156 -1.347656 1.398438 -1.191406 1.640625 -1.078125 C 1.890625 -0.972656 2.160156 -0.921875 2.453125 -0.921875 C 2.679688 -0.921875 2.859375 -0.960938 2.984375 -1.046875 C 3.117188 -1.128906 3.1875 -1.25 3.1875 -1.40625 L 3.1875 -1.421875 C 3.1875 -1.492188 3.171875 -1.554688 3.140625 -1.609375 C 3.117188 -1.660156 3.066406 -1.710938 2.984375 -1.765625 C 2.910156 -1.816406 2.804688 -1.863281 2.671875 -1.90625 C 2.546875 -1.957031 2.375 -2.007812 2.15625 -2.0625 C 1.894531 -2.125 1.660156 -2.191406 1.453125 -2.265625 C 1.242188 -2.347656 1.066406 -2.445312 0.921875 -2.5625 C 0.773438 -2.675781 0.660156 -2.816406 0.578125 -2.984375 C 0.503906 -3.160156 0.46875 -3.375 0.46875 -3.625 L 0.46875 -3.640625 C 0.46875 -3.867188 0.507812 -4.078125 0.59375 -4.265625 C 0.6875 -4.453125 0.8125 -4.613281 0.96875 -4.75 C 1.125 -4.894531 1.3125 -5.003906 1.53125 -5.078125 C 1.75 -5.148438 1.988281 -5.1875 2.25 -5.1875 C 2.625 -5.1875 2.96875 -5.128906 3.28125 -5.015625 C 3.601562 -4.898438 3.894531 -4.738281 4.15625 -4.53125 L 3.5625 -3.6875 C 3.332031 -3.84375 3.109375 -3.960938 2.890625 -4.046875 C 2.671875 -4.140625 2.453125 -4.1875 2.234375 -4.1875 C 2.015625 -4.1875 1.847656 -4.144531 1.734375 -4.0625 C 1.628906 -3.976562 1.578125 -3.875 1.578125 -3.75 L 1.578125 -3.734375 C 1.578125 -3.648438 1.59375 -3.578125 1.625 -3.515625 C 1.65625 -3.453125 1.710938 -3.394531 1.796875 -3.34375 C 1.878906 -3.300781 1.992188 -3.253906 2.140625 -3.203125 C 2.285156 -3.160156 2.46875 -3.113281 2.6875 -3.0625 C 2.945312 -2.988281 3.175781 -2.910156 3.375 -2.828125 C 3.570312 -2.742188 3.738281 -2.640625 3.875 -2.515625 C 4.019531 -2.398438 4.128906 -2.257812 4.203125 -2.09375 C 4.273438 -1.9375 4.3125 -1.75 4.3125 -1.53125 L 4.3125 -1.515625 C 4.3125 -1.253906 4.265625 -1.023438 4.171875 -0.828125 C 4.078125 -0.640625 3.945312 -0.476562 3.78125 -0.34375 C 3.613281 -0.207031 3.414062 -0.101562 3.1875 -0.03125 C 2.957031 0.0390625 2.707031 0.078125 2.4375 0.078125 Z M 2.4375 0.078125 "/></g></g></g></svg>